<?xml version="1.0" encoding="UTF-8" standalone="no"?>
<!-- Created with Inkscape (http://www.inkscape.org/) -->

<svg
   xmlns:dc="http://purl.org/dc/elements/1.1/"
   xmlns:cc="http://creativecommons.org/ns#"
   xmlns:rdf="http://www.w3.org/1999/02/22-rdf-syntax-ns#"
   xmlns:svg="http://www.w3.org/2000/svg"
   xmlns="http://www.w3.org/2000/svg"
   xmlns:xlink="http://www.w3.org/1999/xlink"
   xmlns:sodipodi="http://sodipodi.sourceforge.net/DTD/sodipodi-0.dtd"
   xmlns:inkscape="http://www.inkscape.org/namespaces/inkscape"
   id="svg4140"
   version="1.1"
   inkscape:version="0.91 r13725"
   width="279"
   height="172"
   viewBox="0 0 279 172"
   sodipodi:docname="logo-floreria.svg">
  <metadata
     id="metadata4146">
    <rdf:RDF>
      <cc:Work
         rdf:about="">
        <dc:format>image/svg+xml</dc:format>
        <dc:type
           rdf:resource="http://purl.org/dc/dcmitype/StillImage" />
        <dc:title />
      </cc:Work>
    </rdf:RDF>
  </metadata>
  <defs
     id="defs4144">
    <linearGradient
       inkscape:collect="always"
       id="linearGradient4156">
      <stop
         style="stop-color:#008000;stop-opacity:1;"
         offset="0"
         id="stop4158" />
      <stop
         style="stop-color:#008000;stop-opacity:0;"
         offset="1"
         id="stop4160" />
    </linearGradient>
    <linearGradient
       inkscape:collect="always"
       xlink:href="#linearGradient4156"
       id="linearGradient4162"
       x1="47.519307"
       y1="89.699795"
       x2="145.58519"
       y2="89.699795"
       gradientUnits="userSpaceOnUse"
       gradientTransform="matrix(0.63087177,0,0,0.71050775,0.34152134,24.071315)" />
    <linearGradient
       inkscape:collect="always"
       xlink:href="#linearGradient4156"
       id="linearGradient4170"
       x1="60.755306"
       y1="141.20433"
       x2="83.512901"
       y2="141.20433"
       gradientUnits="userSpaceOnUse"
       gradientTransform="matrix(0.63087177,0,0,0.71050775,0.34152134,24.071315)" />
    <linearGradient
       gradientTransform="matrix(0,0.39689008,-0.28727625,0,96.773789,88.912792)"
       inkscape:collect="always"
       xlink:href="#linearGradient4156"
       id="linearGradient4170-2"
       x1="60.755306"
       y1="141.20433"
       x2="83.512901"
       y2="141.20433"
       gradientUnits="userSpaceOnUse" />
  </defs>
  <sodipodi:namedview
     pagecolor="#ffffff"
     bordercolor="#666666"
     borderopacity="1"
     objecttolerance="10"
     gridtolerance="10"
     guidetolerance="10"
     inkscape:pageopacity="0"
     inkscape:pageshadow="2"
     inkscape:window-width="1366"
     inkscape:window-height="705"
     id="namedview4142"
     showgrid="false"
     inkscape:zoom="1.8914537"
     inkscape:cx="186.45151"
     inkscape:cy="59.241483"
     inkscape:window-x="-8"
     inkscape:window-y="-8"
     inkscape:window-maximized="1"
     inkscape:current-layer="svg4140" />
  <path
     style="fill:#008000;fill-rule:evenodd;stroke:url(#linearGradient4170);stroke-width:0;stroke-linecap:round;stroke-linejoin:miter;stroke-miterlimit:4;stroke-dasharray:none;stroke-opacity:1"
     d="m 41.672036,103.63629 c -2.738071,3.95929 -3.574239,11.50462 -2.62589,17.23485 1.551709,9.37592 13.028809,24.56311 13.028809,24.56311 2.372431,-6.95308 0.140275,-13.50954 -4.779719,-21.63783 -2.263606,-3.73969 -3.771612,-6.78524 -4.785273,-14.69675 -0.790712,-6.17141 -0.411486,-6.08002 -0.837927,-5.46338 z"
     id="path4690"
     inkscape:connector-curvature="0"
     sodipodi:nodetypes="ssssss" />
  <path
     style="fill:url(#linearGradient4162);fill-opacity:1;fill-rule:evenodd;stroke:#000000;stroke-width:0;stroke-linecap:round;stroke-linejoin:miter;stroke-miterlimit:4;stroke-dasharray:none;stroke-opacity:1"
     d="m 35.955117,119.46884 c -1.767615,-12.0998 1.590033,-19.19981 9.559439,-26.387601 L 68.089466,75.212558 92.187108,56.138593 c 0,0 -9.481334,5.99554 -20.601395,9.140444 -9.023495,2.551967 -16.346128,4.948812 -22.322357,7.325421 -10.148531,4.035839 -19.31806,15.303952 -18.931438,27.865312 0.210223,6.83019 5.623199,18.99907 5.623199,18.99907 z"
     id="path4692"
     inkscape:connector-curvature="0"
     sodipodi:nodetypes="ccccsssc" />
  <text
     xml:space="preserve"
     style="font-style:normal;font-weight:normal;font-size:33.14347839px;line-height:125%;font-family:sans-serif;letter-spacing:0px;word-spacing:0px;fill:#000000;fill-opacity:1;stroke:none;stroke-width:1px;stroke-linecap:butt;stroke-linejoin:miter;stroke-opacity:1"
     x="11.615065"
     y="139.59375"
     id="text4136"
     sodipodi:linespacing="125%"
     transform="matrix(0.87301685,-0.39532404,0.43043013,0.95054365,0,0)"><tspan
       sodipodi:role="line"
       id="tspan4138"
       x="11.615065"
       y="139.59375"
       style="font-style:italic;font-variant:normal;font-weight:normal;font-stretch:normal;font-size:37.28641129px;font-family:'Lucida Calligraphy';-inkscape-font-specification:'Lucida Calligraphy Italic';fill:#008000">lorinet  <tspan
   style="font-size:37.28641129px;fill:#ff6600"
   id="tspan4222">com</tspan></tspan></text>
  <path
     style="fill:#ff7f2a;fill-rule:evenodd;stroke:#000000;stroke-width:0;stroke-linecap:round;stroke-linejoin:round;stroke-miterlimit:4;stroke-dasharray:none;stroke-opacity:1"
     d="m 38.865166,24.758751 c 1.364636,5.788104 4.752917,16.434299 4.752917,16.434299 5.106261,14.310304 1.940297,25.308763 3.585534,29.393916 l -5.419993,3.47468 C 38.212986,68.723288 33.190036,65.02057 27.858411,61.66549 c -0.576354,0 -6.700821,-11.744022 -7.254453,-18.782056 5.061589,4.634556 10.591941,11.290351 17.01044,24.041031 -1.684499,-3.475053 -4.636027,-15.163491 -2.084612,-31.553852 0.520707,-4.702263 2.201476,-8.644196 3.33538,-10.611862 z"
     id="path4144"
     inkscape:connector-curvature="0"
     sodipodi:nodetypes="ccccccccc" />
  <path
     style="fill:#ff7f2a;fill-rule:evenodd;stroke:#000000;stroke-width:0;stroke-linecap:butt;stroke-linejoin:round;stroke-miterlimit:4;stroke-dasharray:none;stroke-opacity:1"
     d="M 38.781782,74.719018 C 36.475761,70.310178 25.688514,63.981126 18.519345,61.102028 11.65354,58.070234 4.5107469,55.283794 0.92521294,55.09177 2.5616828,58.146043 7.2027499,62.566668 10.431047,65.327991 c 4.031444,3.591837 12.340908,8.827565 12.340908,8.827565 -11.677058,3.628493 -20.5959745,7.982374 -20.5959745,7.982374 4.8958754,1.002275 7.1009734,1.107494 23.5144325,-3.005128 4.363693,-1.471197 7.5709,-2.16091 13.091369,-4.413784 z"
     id="path4146"
     inkscape:connector-curvature="0"
     sodipodi:nodetypes="cccccccc" />
  <path
     style="fill:#ff7f2a;fill-rule:evenodd;stroke:#000000;stroke-width:0;stroke-linecap:round;stroke-linejoin:round;stroke-miterlimit:4;stroke-dasharray:none;stroke-opacity:1"
     d="m 48.787923,68.990491 c 1.989667,-0.198345 4.042768,-0.682452 6.253839,-1.878205 2.681158,-4.132052 4.70115,-13.42917 5.253224,-20.28462 l 1.417537,-17.279491 c -1.862822,6.222994 -3.200883,12.564187 -7.171068,18.312504 -4.201781,6.229685 -6.392291,14.73585 -5.753532,21.129812 z"
     id="path4148"
     inkscape:connector-curvature="0"
     sodipodi:nodetypes="cccccc" />
  <path
     style="fill:#ff7f2a;fill-rule:evenodd;stroke:#000000;stroke-width:0;stroke-linecap:round;stroke-linejoin:round;stroke-miterlimit:4;stroke-dasharray:none;stroke-opacity:1"
     d="m 61.072128,56.36683 c -0.781692,4.498515 -1.480555,6.87104 -3.773552,10.292712 8.273642,-5.241606 19.096916,-15.087163 25.058749,-21.847112 -6.998154,5.143725 -15.096819,9.273125 -21.285197,11.5544 z"
     id="path4184"
     inkscape:connector-curvature="0"
     sodipodi:nodetypes="cccc" />
  <path
     style="fill:#ff7f2a;fill-rule:evenodd;stroke:#000000;stroke-width:0;stroke-linecap:butt;stroke-linejoin:miter;stroke-miterlimit:4;stroke-dasharray:none;stroke-opacity:1"
     d="M 28.053546,80.139674 C 31.072398,79.33147 32.1696,78.826818 36.720924,77.483489 33.616603,81.620898 28.463836,89.836751 24.515841,94.483066 21.331953,98.7729 17.695466,102.14521 13.725839,104.84219 18.544555,92.815194 18.661093,87.636641 28.053546,80.139674 Z"
     id="path4186"
     inkscape:connector-curvature="0"
     sodipodi:nodetypes="ccccc" />
  <path
     style="fill:#008000;fill-rule:evenodd;stroke:url(#linearGradient4170-2);stroke-width:0;stroke-linecap:round;stroke-linejoin:miter;stroke-miterlimit:4;stroke-dasharray:none;stroke-opacity:1"
     d="m 64.603666,114.91439 c -1.600837,-1.72256 -4.65161,-2.2486 -6.968485,-1.65199 -3.79092,0.9762 -9.931488,8.1966 -9.931488,8.1966 2.811306,1.49253 5.462247,0.0883 8.748723,-3.00699 1.512051,-1.42406 2.74344,-2.37276 5.942263,-3.01048 2.495257,-0.49744 2.458307,-0.25887 2.208987,-0.52714 z"
     id="path4690-5"
     inkscape:connector-curvature="0"
     sodipodi:nodetypes="ssssss" />
  <path
     style="fill:none;fill-rule:evenodd;stroke:#0c7604;stroke-width:0.82800001;stroke-linecap:round;stroke-linejoin:round;stroke-miterlimit:4;stroke-dasharray:none;stroke-opacity:1"
     d="m 205.50241,62.807062 c 0.0855,0.32777 -4.54492,3.32299 -7.67142,2.32414 -3.02674,-0.96699 -7.65592,1.67575 -6.54433,5.42298 0.63943,2.15557 4.07657,4.39145 7.27148,3.17264 5.93703,-2.26489 6.02322,-6.33297 6.10805,-9.07521"
     id="path4146-5"
     inkscape:connector-curvature="0"
     sodipodi:nodetypes="csssc" />
  <path
     style="fill:none;fill-rule:evenodd;stroke:#0c7604;stroke-width:0.65600002;stroke-linecap:round;stroke-linejoin:round;stroke-miterlimit:4;stroke-dasharray:none;stroke-opacity:1"
     d="m 191.46182,70.836652 c -0.0902,-0.17966 -1.31149,1.63541 -2.72863,-0.44531 -0.46307,-0.67991 -1.89059,-1.69699 -1.89059,-1.69699"
     id="path4148-7"
     inkscape:connector-curvature="0"
     sodipodi:nodetypes="csc" />
  <path
     style="fill:none;fill-rule:evenodd;stroke:#0c7604;stroke-width:0.35600001;stroke-linecap:round;stroke-linejoin:miter;stroke-miterlimit:4;stroke-dasharray:none;stroke-opacity:1"
     d="m 203.30347,66.093892 c 0,0 -1.1885,1.14364 -3.23928,2.24339 -1.79924,0.96485 -6.07858,2.16479 -6.8899,2.34773"
     id="path4150"
     inkscape:connector-curvature="0"
     sodipodi:nodetypes="csc" />
  <path
     style="fill:none;fill-rule:evenodd;stroke:#0c7604;stroke-width:0.35600001;stroke-linecap:round;stroke-linejoin:miter;stroke-miterlimit:4;stroke-dasharray:none;stroke-opacity:1"
     d="m 201.04112,66.667782 -1.28543,1.82602 2.05668,0.31302"
     id="path4152"
     inkscape:connector-curvature="0" />
  <path
     style="fill:none;fill-rule:evenodd;stroke:#0c7604;stroke-width:0.35600001;stroke-linecap:round;stroke-linejoin:miter;stroke-miterlimit:4;stroke-dasharray:none;stroke-opacity:1"
     d="m 198.36743,67.085152 -1.69677,2.55642 3.2907,0.46955"
     id="path4154"
     inkscape:connector-curvature="0" />
  <path
     style="fill:none;fill-rule:evenodd;stroke:#0c7604;stroke-width:0.35600001;stroke-linecap:round;stroke-linejoin:miter;stroke-miterlimit:4;stroke-dasharray:none;stroke-opacity:1"
     d="m 195.2824,68.598142 -1.13119,1.87818 2.10811,0.41737"
     id="path4156"
     inkscape:connector-curvature="0" />
</svg>
